<?xml version="1.0" encoding="UTF-8" standalone="no"?>
<!-- Created with Inkscape (http://www.inkscape.org/) -->

<svg
   xmlns:dc="http://purl.org/dc/elements/1.1/"
   xmlns:cc="http://creativecommons.org/ns#"
   xmlns:rdf="http://www.w3.org/1999/02/22-rdf-syntax-ns#"
   xmlns:svg="http://www.w3.org/2000/svg"
   xmlns="http://www.w3.org/2000/svg"
   xmlns:sodipodi="http://sodipodi.sourceforge.net/DTD/sodipodi-0.dtd"
   xmlns:inkscape="http://www.inkscape.org/namespaces/inkscape"
   width="4096"
   height="4096"
   viewBox="0 0 1083.7333 1083.7334"
   id="svg2"
   version="1.1"
   inkscape:version="0.92.2 2405546, 2018-03-11"
   sodipodi:docname="logo.svg"
   inkscape:export-filename="/home/gabriel/go/src/github.com/gjvnq/OpenICP-BR/res/logo-16.png"
   inkscape:export-xdpi="0.37500003"
   inkscape:export-ydpi="0.37500003">
  <defs
     id="defs4" />
  <sodipodi:namedview
     id="base"
     pagecolor="#ffffff"
     bordercolor="#666666"
     borderopacity="1.0"
     inkscape:pageopacity="0.0"
     inkscape:pageshadow="2"
     inkscape:zoom="0.15999999"
     inkscape:cx="874.90312"
     inkscape:cy="1458.0094"
     inkscape:document-units="mm"
     inkscape:current-layer="layer1"
     showgrid="false"
     units="px"
     inkscape:window-width="1920"
     inkscape:window-height="1016"
     inkscape:window-x="0"
     inkscape:window-y="27"
     inkscape:window-maximized="1" />
  <metadata
     id="metadata7">
    <rdf:RDF>
      <cc:Work
         rdf:about="">
        <dc:format>image/svg+xml</dc:format>
        <dc:type
           rdf:resource="http://purl.org/dc/dcmitype/StillImage" />
        <dc:title />
      </cc:Work>
    </rdf:RDF>
  </metadata>
  <g
     inkscape:label="Camada 1"
     inkscape:groupmode="layer"
     id="layer1"
     transform="translate(0,786.73335)">
    <circle
       style="fill:#67dc50;fill-opacity:1;stroke:#349e20;stroke-width:8.46666667;stroke-miterlimit:4;stroke-dasharray:none;stroke-opacity:1"
       id="path4210"
       cx="541.86664"
       cy="-244.86667"
       r="466.97031" />
    <path
       style="fill:#ffffff;fill-opacity:1;stroke:#878787;stroke-width:16.93333244;stroke-miterlimit:4;stroke-dasharray:none;stroke-opacity:1"
       d="m 541.86667,-568.38595 c -56.37078,0 -104.77603,20.21996 -145.21596,60.65986 -40.43989,40.43992 -60.65985,88.84518 -60.65985,145.21595 v 88.23285 h -14.70557 c -12.25452,0 -22.67056,4.28874 -31.24872,12.86693 -8.57816,8.57813 -12.86743,18.99473 -12.86743,31.24925 V 34.53641 c 0,12.254521 4.28927,22.670584 12.86743,31.248746 8.57816,8.578162 18.9942,12.867429 31.24872,12.867429 h 441.16275 c 12.25452,0 22.67056,-4.289267 31.24872,-12.867429 8.57816,-8.578162 12.86743,-18.994225 12.86743,-31.248746 v -264.69752 c 0,-12.25452 -4.28927,-22.67112 -12.86743,-31.24925 -8.57816,-8.57819 -18.9942,-12.86693 -31.24872,-12.86693 H 747.74247 659.51013 585.25936 424.22321 v -88.23285 c 0,-32.47448 11.48889,-60.20014 34.4661,-83.17735 22.97721,-22.97721 50.70287,-34.46611 83.17736,-34.46611 32.47448,0 60.20014,11.4889 83.17735,34.46611 22.97724,22.97721 34.46611,50.70287 34.46611,83.17735 v 7.20421 h 88.23234 v -7.20421 c 0,-56.37077 -20.21996,-104.77603 -60.65985,-145.21595 -40.43992,-40.4399 -88.84518,-60.65986 -145.21595,-60.65986 z m 0,352.92988 c 16.23724,0 30.10005,5.74444 41.58866,17.23305 11.48863,11.4886 17.23308,25.35145 17.23308,41.58869 0,11.33541 -2.91036,21.59894 -8.73125,30.78985 -5.82091,9.19089 -13.63321,16.38999 -23.43682,21.59815 L 600.22899,0.98962512 c 1.53183,4.59544208 0.7656,8.88470828 -2.29804,12.86742788 -3.06364,3.98272 -7.04631,5.973789 -11.94811,5.973789 h -88.23235 c -4.9018,0 -8.88447,-1.991069 -11.9481,-5.973789 -3.06362,-3.9827196 -3.82988,-8.2719858 -2.29804,-12.86742788 L 515.21299,-104.24633 c -9.8036,-5.20816 -17.6159,-12.40726 -23.43682,-21.59815 -5.82088,-9.19091 -8.73125,-19.45444 -8.73125,-30.78985 0,-16.23724 5.74445,-30.10009 17.23308,-41.58869 11.48861,-11.48861 25.35143,-17.23305 41.58867,-17.23305 z"
       id="path2993"
       inkscape:connector-curvature="0" />
  </g>
</svg>
