<?xml version="1.0" encoding="UTF-8" standalone="no"?>
<!-- Created with Inkscape (http://www.inkscape.org/) -->

<svg
   xmlns:dc="http://purl.org/dc/elements/1.1/"
   xmlns:cc="http://creativecommons.org/ns#"
   xmlns:rdf="http://www.w3.org/1999/02/22-rdf-syntax-ns#"
   xmlns:svg="http://www.w3.org/2000/svg"
   xmlns="http://www.w3.org/2000/svg"
   xmlns:sodipodi="http://sodipodi.sourceforge.net/DTD/sodipodi-0.dtd"
   xmlns:inkscape="http://www.inkscape.org/namespaces/inkscape"
   width="4096"
   height="4096"
   viewBox="0 0 1083.7333 1083.7334"
   id="svg2"
   version="1.1"
   inkscape:version="0.91+devel+osxmenu r12922"
   sodipodi:docname="logo.svg">
  <defs
     id="defs4" />
  <sodipodi:namedview
     id="base"
     pagecolor="#ffffff"
     bordercolor="#666666"
     borderopacity="1.0"
     inkscape:pageopacity="0.0"
     inkscape:pageshadow="2"
     inkscape:zoom="0.11313708"
     inkscape:cx="1996.3852"
     inkscape:cy="2099.8882"
     inkscape:document-units="mm"
     inkscape:current-layer="layer1"
     showgrid="false"
     units="px"
     inkscape:window-width="1366"
     inkscape:window-height="723"
     inkscape:window-x="0"
     inkscape:window-y="23"
     inkscape:window-maximized="0" />
  <metadata
     id="metadata7">
    <rdf:RDF>
      <cc:Work
         rdf:about="">
        <dc:format>image/svg+xml</dc:format>
        <dc:type
           rdf:resource="http://purl.org/dc/dcmitype/StillImage" />
        <dc:title></dc:title>
      </cc:Work>
    </rdf:RDF>
  </metadata>
  <g
     inkscape:label="Camada 1"
     inkscape:groupmode="layer"
     id="layer1"
     transform="translate(0,786.73335)">
    <circle
       style="fill:#67dc50;fill-opacity:1;stroke:#349e20;stroke-width:8.46666667;stroke-miterlimit:4;stroke-dasharray:none;stroke-opacity:1"
       id="path4210"
       cx="541.86664"
       cy="-244.86667"
       r="466.97031" />
    <path
       style="font-style:normal;font-variant:normal;font-weight:normal;font-stretch:normal;font-size:medium;line-height:125%;font-family:'Roboto Slab';-inkscape-font-specification:'Roboto Slab';letter-spacing:0px;word-spacing:0px;fill:#ffffff;fill-opacity:1;stroke:#878787;stroke-width:8.46666667;stroke-linecap:butt;stroke-linejoin:miter;stroke-opacity:1;stroke-miterlimit:4;stroke-dasharray:none"
       d="m 481.48459,-471.79484 -229.35879,378.88808 -40.78115,5.78495 0,36.442768 132.46689,0 0,-36.442768 -23.71626,-4.04963 34.99619,-60.73789 160.8104,0 2.31424,56.97835 -45.11957,7.80917 0,36.442768 62.48568,0 45.78027,0 66.13864,0 c 54.95331,0 99.10923,-16.77525 132.46689,-50.325718 33.55047,-33.74328 50.3257,-77.51275 50.3257,-131.30915 l 0,-57.55724 c 0,-53.6036 -16.77523,-97.27705 -50.3257,-131.02032 -33.35766,-33.93611 -77.51358,-50.90337 -132.46689,-50.90337 l -92.48526,0 -19.9716,0 -53.55968,0 z m 166.01654,44.48 c 38.94905,-0.15855 69.60755,13.17285 91.97449,38.8177 22.55982,25.64489 33.83975,58.32767 33.83975,98.04834 l 0,58.13489 c 0,40.10633 -11.27993,72.98109 -33.83975,98.62592 -22.36694,25.64493 -53.02513,38.46819 -91.97449,38.46819 l -72.30666,0 -6.36382,-152.13481 -1.73537,-44.82951 -5.78376,-134.78113 86.18961,-0.34959 z m -144.03567,17.70323 1.44657,0.57887 8.96569,205.3524 -128.9962,0 118.58394,-205.93127 z"
       id="path4203"
       inkscape:connector-curvature="0" />
  </g>
</svg>
