/* XPM */
const char *xpm_icon_32[] = {
/* columns rows colors chars-per-pixel */
"32 32 143 2 ",
"   c #4BB833",
".  c #4BB934",
"X  c #4ABA35",
"o  c #4CB834",
"O  c #4CBB37",
"+  c #4DBB37",
"@  c #4DBC36",
"#  c #4EBC37",
"$  c #4EBE37",
"%  c #4DBD38",
"&  c #4DBE38",
"*  c #4FBF3A",
"=  c #50BE39",
"-  c #51C03A",
";  c #50C13B",
":  c #51C13B",
">  c #51C33C",
",  c #52C23C",
"<  c #53C33D",
"1  c #52C33E",
"2  c #52C43D",
"3  c #52C43E",
"4  c #54C43D",
"5  c #55C73E",
"6  c #55C63F",
"7  c #56C63F",
"8  c #56C73F",
"9  c #77B36B",
"0  c #76B569",
"q  c #7DBC71",
"w  c #7DBC72",
"e  c #7EBC72",
"r  c #7FBC72",
"t  c #55C640",
"y  c #55C740",
"u  c #55C641",
"i  c #56C740",
"p  c #56C741",
"a  c #55C840",
"s  c #56C841",
"d  c #57C841",
"f  c #57C941",
"g  c #57CA41",
"h  c #58CA41",
"j  c #58C942",
"k  c #58CA42",
"l  c #58CA43",
"z  c #59CB43",
"x  c #59CD43",
"c  c #5ACD43",
"v  c #5BCC44",
"b  c #5ACD44",
"n  c #5BCD44",
"m  c #5CCE45",
"M  c #66DB4F",
"N  c #67DB4F",
"B  c #6FC75D",
"V  c #6FC65E",
"C  c #6FC75E",
"Z  c #6CCD59",
"A  c #6CCE58",
"S  c #6CCF58",
"D  c #6DCE5A",
"F  c #6FC85D",
"G  c #6FC95D",
"H  c #6FCC5D",
"J  c #70C45F",
"K  c #70C55F",
"L  c #71CA5F",
"P  c #6AD356",
"I  c #6AD456",
"U  c #67DC50",
"Y  c #68D951",
"T  c #68D852",
"R  c #69D853",
"E  c #69D953",
"W  c #68DC51",
"Q  c #71C361",
"!  c #72C062",
"~  c #70C560",
"^  c #77C069",
"/  c #78C269",
"(  c #78C06A",
")  c #79C16B",
"_  c #79C26A",
"`  c #7AC06C",
"'  c #7AC16D",
"]  c #81AE78",
"[  c #8CAE85",
"{  c #8CAE86",
"}  c #8DAF87",
"|  c #8EAF88",
" . c #8BB283",
".. c #8BB383",
"X. c #8BB284",
"o. c #97AC93",
"O. c #97AD93",
"+. c #98AD94",
"@. c #98AE94",
"#. c #99AE94",
"$. c #99AF95",
"%. c #9DB099",
"&. c #9DB199",
"*. c #A8B7A5",
"=. c #A9B6A7",
"-. c #ABB8A8",
";. c #B5C1B3",
":. c #B7C2B5",
">. c #BDC7BB",
",. c #BEC8BC",
"<. c #BEC8BD",
"1. c #BFC8BD",
"2. c #C0C9BF",
"3. c #C2CAC0",
"4. c #CBCFCA",
"5. c #CFD4CF",
"6. c #D1D5CF",
"7. c #D1D7D1",
"8. c #D2D7D1",
"9. c #D3D5D2",
"0. c #D3D5D3",
"q. c #D4D7D3",
"w. c #D5D7D4",
"e. c #D7D7D7",
"r. c #D2D8D1",
"t. c #D8DAD8",
"y. c #DADBDA",
"u. c #DDDDDD",
"i. c gray87",
"p. c #DFDFDF",
"a. c gray89",
"s. c #E4E4E4",
"d. c #E6E6E6",
"f. c #E7E7E7",
"g. c gray91",
"h. c #E9E9E9",
"j. c #E9EBE9",
"k. c #F6F6F6",
"l. c gray97",
"z. c #F9F9F9",
"x. c gray98",
"c. c gray100",
"v. c None",
/* pixels */
"v.v.v.v.v.v.v.v.v.v.v.v.% 4 i i i u 1 # v.v.v.v.v.v.v.v.v.v.v.v.",
"v.v.v.v.v.v.v.v.v.# z M U U U U U U U U U k . v.v.v.v.v.v.v.v.v.",
"v.v.v.v.v.v.v.. n U U U U U U U U U U U U U U n . v.v.v.v.v.v.v.",
"v.v.v.v.v.v.% M U U U U U U U U U U U U U U U U W 1 v.v.v.v.v.v.",
"v.v.v.v.v.i U U U U U U U U I F F I U U U U U U U U k v.v.v.v.v.",
"v.v.v.v.i U U U U U U W _ @.;.5.5.;.$.^ U U U U U U M i v.v.v.v.",
"v.v.v.: U U U U U U Y { 8.c.c.c.c.c.c.8.{ Y U U U U U U : v.v.v.",
"v.v.. M U U U U U Y { j.c.c.x.a.s.x.c.c.j.{ W U U U U W M   v.v.",
"v.v.n U U U U U U ' r.c.c.>.} _ _ } 1.c.c.8.' U U U U U U n v.v.",
"v.# U U U U U U U +.c.c.>._ W U U U _ 1.c.c.+.U U U U U U U # v.",
"v.z U U U U U U P :.c.x.} U U U U U U } x.c.:.I U U U U U U k v.",
"v.M U U U U U U F 6.c.a.^ U U U U U U _ u.k.4.F U U U U U U M v.",
"% U U U U U U U J y.c.u.Q M U U U U U Z  . . .S U U U U U U U % ",
"4 U U U U U U U J y.c.u.Q U W W U U U U U U U U U U U U U U U 2 ",
"4 U U U U U U R 0 y.c.u.9 V J ~ J J V J ~ J V V U U U U U U U 4 ",
"z U U U U U T +.y.k.c.k.u.a.u.u.p.u.a.u.p.p.p.t.+.R U U U U U k ",
"k U U U U U V w.c.c.c.c.c.c.c.j.j.c.c.c.c.c.c.c.q.V U U U U U i ",
"4 U U U U U ~ y.c.c.c.c.c.c.*.' w *.c.c.c.c.c.c.y.~ U U U U U 4 ",
"4 U U U U U ~ y.c.c.c.c.c.f.] U U ] j.c.c.c.c.c.y.~ U U U U U 2 ",
"% U U U U U ~ y.c.c.c.c.c.f.q W U w f.c.c.c.c.c.y.~ U U U U U % ",
"v.U U U U U ~ y.c.c.c.c.c.c.*.L S -.c.c.c.c.c.c.y.~ U U U U U v.",
"v.z U U U U ~ y.c.c.c.c.c.c.2.D S 2.c.c.c.c.c.c.y.~ U U U U z v.",
"v.. U U U U J y.c.c.c.c.c.c.&.U W &.c.c.c.c.c.c.y.~ U U U U . v.",
"v.v.x U U U J y.c.c.c.c.c.c.] U W ..x.c.c.c.c.c.y.~ U U U m v.v.",
"v.v.. M Y U J y.c.c.c.c.c.j.] 0 0 ] j.c.c.c.c.c.y.~ U U M . v.v.",
"v.v.v.1 U U V w.c.c.c.c.c.c.f.p.i.d.c.c.c.c.c.c.w.F U U = v.v.v.",
"v.v.v.v.4 M Y @.8.0.y.0.0.e.e.e.w.t.e.e.0.y.w.0.+.I U k v.v.v.v.",
"v.v.v.v.v.k U Y V J Q V ~ ~ ~ J V F J J J ~ J F U U 4 v.v.v.v.v.",
"v.v.v.v.v.v.= U U U U U U U U U U U U U U U U U U 1 v.v.v.v.v.v.",
"v.v.v.v.v.v.v.  x U U U U U U U U U U U U U U n . v.v.v.v.v.v.v.",
"v.v.v.v.v.v.v.v.v.# k U U U U U U U U U M k # v.v.v.v.v.v.v.v.v.",
"v.v.v.v.v.v.v.v.v.v.v.v.; 2 4 k 4 8 2 * v.v.v.v.v.v.v.v.v.v.v.v."
};
